<?xml version="1.0" encoding="utf-8" ?>
<svg baseProfile="full" height="300" style="stroke-width: 4; stroke: black; stroke-linecap: round; stroke-linejoin: round" version="1.1" width="242.0" xmlns="http://www.w3.org/2000/svg" xmlns:ev="http://www.w3.org/2001/xml-events" xmlns:xlink="http://www.w3.org/1999/xlink"><defs><clipPath id="door_clip"><rect height="280" width="130" x="56.0" y="18" /></clipPath></defs><g clip-path="url(#door_clip)"><g fill="none" transform="translate(121.0,318) scale(8)"><circle cx="0" cy="0" r="19" style="stroke: #dd0000; stroke-width: 1.1" /><circle cx="0" cy="0" r="18" style="stroke: #fe6230; stroke-width: 1.1" /><circle cx="0" cy="0" r="17" style="stroke: #fef600; stroke-width: 1.1" /><circle cx="0" cy="0" r="16" style="stroke: #00bc00; stroke-width: 1.1" /><circle cx="0" cy="0" r="15" style="stroke: #009bfe; stroke-width: 1.1" /><circle cx="0" cy="0" r="14" style="stroke: #000083; stroke-width: 1.1" /><circle cx="0" cy="0" r="13" style="stroke: #30009b; stroke-width: 1.1" /></g></g><path d="M 40.0 2 h 162 v 296 h -16 v -280 h -130 v 280 h -16 z" fill="#898989" /><g transform="translate(56.0,18)"><g transform="translate(94,0)"><path d="M 0 10 L 36 0 v 280 h -36 z" fill="#d6d6d6" /><line x1="7" x2="7" y1="125.0" y2="155.0" /></g></g><line x1="0" x2="40" y1="298" y2="298" /><line x1="202.0" x2="242.0" y1="298" y2="298" /></svg>